<?xml version="1.0" standalone="no"?>
<!DOCTYPE svg PUBLIC "-//W3C//DTD SVG 20010904//EN"
 "http://www.w3.org/TR/2001/REC-SVG-20010904/DTD/svg10.dtd">
<svg version="1.0" xmlns="http://www.w3.org/2000/svg"
 width="1024.000000pt" height="1024.000000pt" viewBox="0 0 1024.000000 1024.000000"
 preserveAspectRatio="xMidYMid meet">

<g transform="translate(0.000000,1024.000000) scale(0.100000,-0.100000)"
fill="#000000" stroke="none">
<path d="M4810 9803 c-19 -1 -93 -8 -165 -14 -566 -48 -1101 -195 -1628 -447
-495 -237 -998 -612 -1394 -1041 -662 -715 -1064 -1556 -1202 -2516 -41 -288
-55 -732 -31 -1030 30 -379 129 -858 244 -1185 70 -197 198 -492 271 -625 130
-235 249 -422 379 -594 39 -52 80 -106 91 -121 126 -166 495 -545 685 -702
591 -487 1222 -814 1890 -977 402 -98 766 -141 1194 -142 575 0 1068 87 1609
285 346 127 710 311 1019 517 681 453 1286 1145 1625 1856 461 971 583 2063
347 3118 -158 707 -487 1368 -967 1945 -119 143 -396 420 -541 543 -790 663
-1717 1035 -2801 1122 -158 13 -527 18 -625 8z m300 -353 c16 -47 30 -87 30
-90 0 -3 -48 -14 -107 -24 -204 -35 -462 -110 -703 -203 -88 -34 -335 -151
-530 -251 -13 -6 -240 394 -228 402 9 7 357 109 443 130 307 76 677 125 928
122 l138 -1 29 -85z m375 70 c267 -24 565 -75 821 -140 86 -22 159 -40 162
-40 3 0 3 -2 0 -5 -2 -3 -29 0 -59 5 -175 34 -323 43 -694 46 l-379 2 -16 48
c-9 27 -20 61 -23 76 -7 25 -6 26 31 22 20 -2 91 -8 157 -14z m-1896 -653 c29
-43 51 -80 49 -81 -1 -2 -68 -45 -148 -98 -375 -245 -712 -541 -1059 -928
l-31 -35 -20 25 c-113 138 -221 293 -321 462 l-57 97 123 110 c360 320 715
552 1118 732 l152 67 70 -136 c39 -76 95 -172 124 -215z m2463 338 c322 -27
507 -55 367 -55 -153 0 -507 -75 -688 -145 l-93 -36 -26 23 c-14 13 -61 66
-104 118 l-79 95 53 6 c107 12 392 9 570 -6z m-745 -132 c45 -60 97 -124 116
-143 l34 -35 -110 -59 c-243 -129 -492 -300 -727 -501 -80 -69 -138 -111 -144
-106 -173 130 -413 344 -504 448 l-52 61 82 45 c253 136 637 276 958 350 280
64 249 70 347 -60z m1573 -87 c0 -2 -40 -34 -89 -70 -131 -96 -251 -199 -378
-324 l-113 -111 -97 56 c-116 66 -261 165 -356 241 l-69 55 90 28 c195 60 428
102 652 118 127 9 360 14 360 7z m246 -263 c-4 -156 -40 -528 -52 -542 -8 -9
-531 174 -590 207 -14 8 -11 15 22 51 51 57 229 212 333 291 99 75 261 179
279 180 10 0 11 -40 8 -187z m252 27 c89 -125 156 -236 228 -380 61 -121 147
-320 141 -326 -8 -8 -241 32 -481 83 -27 6 -28 8 -21 47 26 161 46 357 52 504
3 95 9 169 13 165 4 -4 34 -46 68 -93z m-1698 -61 c113 -94 258 -197 388 -276
59 -35 106 -67 105 -69 0 -3 -58 -76 -127 -163 -140 -176 -291 -381 -381 -519
-33 -50 -63 -92 -68 -92 -16 0 -351 173 -510 264 -195 111 -447 267 -447 276
0 4 19 24 43 46 176 163 485 376 765 529 75 41 139 75 142 75 3 0 43 -32 90
-71z m2117 -150 c110 -98 257 -258 368 -399 l67 -85 -74 -12 c-40 -6 -105 -12
-144 -12 l-70 -1 -18 53 c-59 167 -180 424 -248 524 -53 78 -34 68 119 -68z
m-3881 -57 c87 -86 223 -208 301 -271 l142 -114 -108 -112 c-265 -276 -499
-571 -750 -948 l-92 -137 -97 67 c-262 180 -514 380 -688 546 l-99 94 110 118
c216 232 495 481 738 659 62 46 377 256 383 256 1 0 73 -71 160 -158z m4538
-374 c-12 -19 -44 -5 -70 30 -16 20 -63 78 -104 127 -115 136 -106 133 43 -14
75 -74 134 -138 131 -143z m-1952 91 c79 -33 231 -90 338 -126 107 -37 197
-68 199 -70 11 -8 -112 -537 -189 -816 -32 -115 -34 -118 -57 -112 -89 22
-657 248 -905 360 l-127 57 33 46 c247 352 532 722 557 722 5 0 73 -27 151
-61z m-4422 -349 c58 -76 127 -163 154 -194 l48 -56 -74 -92 c-255 -320 -506
-720 -686 -1090 -26 -54 -50 -98 -54 -98 -14 0 -163 190 -246 316 -48 71 -109
173 -136 225 l-50 95 29 68 c47 110 189 360 301 528 136 205 296 407 447 565
l50 52 56 -91 c31 -49 103 -152 161 -228z m2591 26 c205 -129 358 -215 619
-347 113 -56 207 -104 209 -105 2 -2 -39 -74 -91 -161 -200 -333 -441 -758
-568 -998 -29 -55 -56 -104 -60 -108 -8 -10 -561 267 -745 373 -60 34 -173 99
-250 143 -77 44 -159 93 -182 109 l-43 29 52 77 c148 222 343 481 513 684 120
145 362 408 374 408 5 0 83 -47 172 -104z m2685 55 c121 -28 268 -52 395 -66
l56 -6 26 -97 c80 -289 124 -574 134 -861 l6 -174 -39 7 c-150 27 -540 134
-827 229 -115 37 -128 44 -122 62 48 168 184 725 215 878 6 31 15 57 19 57 4
0 65 -13 137 -29z m1317 -93 c124 -162 188 -255 287 -417 114 -187 276 -514
330 -668 18 -50 18 -53 1 -62 -20 -11 -158 -46 -218 -56 -40 -6 -42 -5 -49 22
-92 412 -270 872 -467 1205 l-46 78 32 9 c18 5 33 10 34 10 1 1 44 -54 96
-121z m-259 -80 c159 -283 299 -627 392 -967 50 -184 57 -171 -83 -165 -117 5
-374 34 -508 57 l-70 12 -7 180 c-11 296 -49 596 -108 843 -17 69 -29 126 -28
128 2 1 48 8 103 14 55 6 118 15 140 20 93 19 87 23 169 -122z m-5920 -365
c167 -158 408 -349 684 -542 72 -51 132 -95 132 -97 0 -1 -31 -54 -68 -116
-176 -291 -423 -753 -569 -1063 -47 -99 -87 -182 -89 -184 -13 -13 -412 274
-624 448 -83 69 -291 254 -328 294 l-34 35 97 193 c131 262 282 520 413 709
59 85 296 400 300 400 3 0 41 -35 86 -77z m3386 -144 c239 -106 500 -213 723
-295 l159 -57 -6 -33 c-9 -46 -124 -391 -275 -824 -161 -463 -185 -525 -202
-523 -8 0 -63 20 -124 43 -60 22 -150 56 -200 75 -171 64 -488 196 -724 301
-130 59 -248 111 -263 117 -16 6 -28 15 -28 20 0 38 707 1267 729 1267 4 0 99
-41 211 -91z m1410 -529 c36 -10 124 -37 195 -58 72 -22 202 -56 290 -77 226
-52 202 -31 193 -171 -15 -238 -60 -567 -118 -870 -25 -131 -98 -445 -105
-452 -18 -19 -636 148 -1095 295 -96 30 -180 57 -187 59 -9 2 -5 23 13 71 71
186 229 636 337 959 l120 362 146 -50 c80 -27 175 -57 211 -68z m-6340 22 c0
-35 226 -355 365 -516 53 -62 74 -93 70 -105 -114 -281 -221 -595 -274 -806
-26 -103 -91 -431 -91 -460 0 -29 -338 362 -373 432 -36 71 47 649 144 1008
45 163 141 455 151 455 4 0 8 -4 8 -8z m2680 -179 c74 -44 151 -89 170 -101
111 -66 467 -256 666 -355 l231 -115 -80 -159 c-43 -87 -131 -266 -194 -398
-106 -220 -167 -351 -335 -720 -32 -71 -62 -133 -66 -136 -7 -7 -75 25 -312
146 -198 101 -598 329 -795 455 -60 38 -127 79 -147 90 l-37 20 43 93 c129
278 389 770 569 1077 50 85 97 168 105 183 12 25 16 27 31 14 9 -8 77 -50 151
-94z m5784 -155 c71 -227 128 -504 162 -788 21 -183 34 -531 20 -546 -28 -30
-265 -95 -405 -112 l-74 -9 7 66 c3 36 11 163 17 281 18 349 -3 670 -70 1090
-5 30 -7 58 -5 61 2 4 34 10 71 13 52 6 227 45 240 55 1 0 18 -50 37 -111z
m-1139 87 c81 -14 315 -39 505 -52 l104 -8 8 -35 c21 -102 50 -319 64 -496 13
-156 15 -262 10 -494 -7 -293 -16 -443 -28 -455 -19 -19 -328 -8 -568 21 -134
16 -424 60 -447 69 -9 3 -7 21 7 72 40 145 97 413 134 633 34 202 53 360 68
575 l12 185 26 0 c14 0 61 -7 105 -15z m-6455 -759 c201 -168 287 -233 500
-381 102 -70 187 -129 188 -131 2 -1 -32 -95 -77 -207 -125 -316 -314 -905
-337 -1049 -4 -21 -11 -38 -17 -38 -15 0 -337 246 -472 360 -147 125 -391 346
-414 376 -21 26 -16 89 24 328 47 276 126 555 246 862 l59 151 78 -75 c42 -41
142 -129 222 -196z m3110 144 c211 -106 583 -262 996 -416 295 -109 306 -114
300 -128 -67 -168 -270 -641 -383 -896 -227 -508 -237 -530 -248 -530 -14 0
-232 82 -482 181 -187 75 -560 235 -860 369 l-71 32 17 42 c136 316 647 1376
663 1376 5 0 35 -13 68 -30z m1715 -674 c362 -118 683 -209 970 -274 75 -17
80 -19 77 -42 -12 -85 -182 -575 -312 -900 -79 -200 -207 -496 -222 -516 -10
-14 -96 3 -403 82 -371 94 -985 280 -985 297 0 5 49 115 109 245 138 300 257
573 401 920 65 156 118 270 124 268 6 -3 115 -39 241 -80z m-3297 -481 c113
-63 297 -160 407 -216 l201 -102 -73 -171 c-137 -316 -382 -945 -424 -1083 -6
-24 -16 -43 -22 -43 -30 0 -585 310 -807 450 -63 40 -144 91 -180 113 -157 96
-210 137 -210 160 0 29 77 318 130 489 23 73 46 149 52 168 17 59 134 380 178
490 23 58 46 115 51 127 7 20 20 14 249 -123 133 -79 334 -196 448 -259z
m-2473 7 l108 -112 2 -318 c2 -202 9 -360 18 -437 18 -144 62 -389 83 -463 9
-30 14 -56 11 -58 -2 -2 -40 30 -84 73 -77 75 -81 82 -115 179 -148 415 -258
990 -258 1342 l0 64 64 -79 c35 -44 112 -130 171 -191z m7221 104 c241 -40
603 -75 795 -76 26 0 26 0 17 -57 -20 -132 -92 -464 -128 -591 -66 -232 -182
-554 -269 -744 -25 -53 -37 -69 -58 -74 -32 -8 -446 20 -608 42 -122 16 -481
73 -507 80 -14 4 -7 25 44 137 151 332 344 847 458 1223 l30 102 39 -9 c21 -5
106 -20 187 -33z m1489 -134 c-41 -385 -117 -723 -257 -1136 l-23 -68 -75 -38
c-130 -65 -335 -124 -508 -146 l-54 -7 20 39 c35 69 149 365 196 511 76 234
142 514 194 818 l17 100 75 7 c96 10 265 44 355 72 39 12 72 19 73 14 2 -5 -4
-79 -13 -166z m-8374 -288 c27 -33 265 -240 389 -340 148 -118 254 -199 368
-278 59 -42 81 -63 78 -75 -3 -9 -13 -77 -23 -151 -25 -191 -25 -748 0 -894
10 -54 15 -101 12 -104 -5 -5 -110 65 -255 172 -161 118 -381 308 -407 351
-12 19 -75 213 -107 325 -65 235 -95 460 -103 779 -6 250 -6 253 14 243 11 -6
26 -19 34 -28z m3129 -184 c328 -143 731 -308 1057 -434 l123 -48 -75 -147
c-172 -341 -547 -1010 -609 -1088 -3 -4 -328 119 -541 205 -345 139 -685 291
-692 309 -8 21 266 730 447 1156 l62 145 31 -13 c18 -7 106 -46 197 -85z
m1598 -620 c284 -91 548 -166 881 -251 129 -33 236 -61 239 -63 9 -10 -160
-318 -306 -556 -166 -273 -418 -620 -449 -620 -35 0 -333 65 -566 124 -218 56
-470 127 -679 194 l-57 18 68 110 c151 241 364 624 529 951 48 95 89 173 90
173 2 0 115 -36 250 -80z m-3659 -32 c315 -200 407 -257 591 -363 156 -90 486
-265 500 -265 13 0 15 7 -20 -96 -88 -258 -230 -792 -230 -869 -1 -51 -12 -49
-168 29 -219 110 -570 315 -696 407 -23 18 -71 314 -86 541 -7 103 -7 208 0
315 10 169 29 343 38 343 3 0 35 -19 71 -42z m5071 -338 c242 -50 658 -104
901 -116 l136 -7 -46 -81 c-217 -376 -468 -708 -723 -958 -117 -115 -97 -109
-288 -97 -255 15 -746 74 -803 97 -16 6 -13 14 29 67 199 257 465 681 609 972
39 78 75 142 80 142 6 0 53 -8 105 -19z m1766 -147 c-124 -244 -282 -496 -433
-690 -96 -123 -231 -272 -266 -294 -86 -52 -458 -129 -622 -129 l-36 0 105
113 c266 284 534 659 687 960 l39 77 43 0 c97 0 412 65 527 108 14 5 26 8 28
7 2 -2 -30 -70 -72 -152z m-7927 -75 c51 -59 81 -111 161 -275 54 -112 97
-203 95 -203 -2 0 -33 46 -70 101 -116 176 -272 449 -256 449 4 0 35 -33 70
-72z m2571 -256 c85 -38 198 -88 250 -110 52 -22 142 -60 200 -85 58 -24 198
-80 312 -123 114 -43 208 -82 208 -86 0 -11 -162 -249 -255 -373 -91 -123
-252 -318 -341 -412 l-59 -62 -75 30 c-283 114 -714 300 -728 314 -16 16 115
532 203 802 l66 203 32 -14 c18 -7 102 -45 187 -84z m-2059 -173 c68 -53 184
-138 258 -188 l135 -91 32 -98 c57 -174 162 -401 246 -532 43 -66 -225 200
-357 355 -132 155 -365 483 -454 639 -26 46 -38 53 140 -85z m3699 -434 c210
-60 603 -159 698 -176 39 -7 72 -17 72 -22 0 -20 -393 -400 -510 -493 -137
-110 -284 -214 -372 -263 l-56 -32 -214 56 c-299 79 -429 116 -611 175 l-159
51 64 67 c144 150 345 412 526 683 l71 107 163 -53 c90 -29 237 -74 328 -100z
m-2845 -126 c133 -76 343 -187 446 -235 l75 -35 -3 -212 c-3 -153 -1 -234 10
-290 16 -93 19 -92 -96 -9 -159 114 -329 293 -441 465 -49 76 -158 293 -194
388 l-29 76 61 -42 c33 -23 111 -71 171 -106z m3950 -133 c261 -44 590 -83
753 -87 34 -1 62 -4 62 -6 0 -7 -246 -197 -380 -293 -188 -135 -360 -238 -591
-355 -280 -142 -263 -137 -389 -114 -233 42 -446 80 -459 82 -7 1 24 28 70 59
209 142 471 374 674 597 103 114 133 141 149 137 12 -3 62 -12 111 -20z m1660
-55 c-55 -48 -237 -197 -336 -273 -237 -182 -500 -345 -774 -480 l-148 -73
-241 -3 -241 -3 105 54 c329 168 727 447 990 692 l45 43 175 6 c96 4 227 15
290 25 141 23 147 23 135 12z m-4764 -237 c79 -36 230 -99 334 -141 105 -41
194 -79 198 -83 13 -11 -162 -148 -273 -214 -107 -63 -227 -116 -281 -123
l-37 -5 -31 81 c-44 114 -61 190 -68 311 -5 90 2 240 12 240 1 0 67 -30 146
-66z m919 -359 c96 -31 289 -89 429 -129 l254 -73 -81 -31 c-218 -83 -545
-142 -790 -142 -131 0 -431 39 -512 66 -9 3 14 20 58 44 39 21 95 54 124 73
67 42 243 184 283 226 17 19 36 30 45 27 8 -3 94 -30 190 -61z m1085 -284 c55
-10 149 -26 208 -36 l109 -19 -94 -28 c-244 -73 -541 -117 -843 -124 l-200 -4
86 19 c177 39 332 91 474 161 55 26 114 49 130 49 17 1 75 -7 130 -18z m1020
-114 c-8 -4 -101 -30 -207 -57 -191 -49 -543 -113 -688 -125 l-75 -6 130 35
c142 38 364 112 435 145 41 20 60 21 232 19 102 -2 180 -6 173 -11z m-988
-193 c-3 -3 -12 -4 -19 -1 -8 3 -5 6 6 6 11 1 17 -2 13 -5z"/>
</g>
</svg>
